%TF.GenerationSoftware,KiCad,Pcbnew,10.0.1*%
%TF.CreationDate,2026-07-23T21:38:32-07:00*%
%TF.ProjectId,USB_Hub_Schematic,5553425f-4875-4625-9f53-6368656d6174,rev?*%
%TF.SameCoordinates,Original*%
%TF.FileFunction,Soldermask,Top*%
%TF.FilePolarity,Negative*%
%FSLAX46Y46*%
G04 Gerber Fmt 4.6, Leading zero omitted, Abs format (unit mm)*
G04 Created by KiCad (PCBNEW 10.0.1) date 2026-07-23 21:38:32*
%MOMM*%
%LPD*%
G01*
G04 APERTURE LIST*
G04 Aperture macros list*
%AMRoundRect*
0 Rectangle with rounded corners*
0 $1 Rounding radius*
0 $2 $3 $4 $5 $6 $7 $8 $9 X,Y pos of 4 corners*
0 Add a 4 corners polygon primitive as box body*
4,1,4,$2,$3,$4,$5,$6,$7,$8,$9,$2,$3,0*
0 Add four circle primitives for the rounded corners*
1,1,$1+$1,$2,$3*
1,1,$1+$1,$4,$5*
1,1,$1+$1,$6,$7*
1,1,$1+$1,$8,$9*
0 Add four rect primitives between the rounded corners*
20,1,$1+$1,$2,$3,$4,$5,0*
20,1,$1+$1,$4,$5,$6,$7,0*
20,1,$1+$1,$6,$7,$8,$9,0*
20,1,$1+$1,$8,$9,$2,$3,0*%
%AMRotRect*
0 Rectangle, with rotation*
0 The origin of the aperture is its center*
0 $1 length*
0 $2 width*
0 $3 Rotation angle, in degrees counterclockwise*
0 Add horizontal line*
21,1,$1,$2,0,0,$3*%
G04 Aperture macros list end*
%ADD10C,1.500000*%
%ADD11RoundRect,0.250000X-0.550000X-0.550000X0.550000X-0.550000X0.550000X0.550000X-0.550000X0.550000X0*%
%ADD12C,1.600000*%
%ADD13RoundRect,0.218750X0.218750X0.256250X-0.218750X0.256250X-0.218750X-0.256250X0.218750X-0.256250X0*%
%ADD14RoundRect,0.140000X0.170000X-0.140000X0.170000X0.140000X-0.170000X0.140000X-0.170000X-0.140000X0*%
%ADD15RoundRect,0.250000X-0.475000X0.250000X-0.475000X-0.250000X0.475000X-0.250000X0.475000X0.250000X0*%
%ADD16RoundRect,0.250000X0.250000X0.475000X-0.250000X0.475000X-0.250000X-0.475000X0.250000X-0.475000X0*%
%ADD17R,1.200000X1.400000*%
%ADD18RoundRect,0.200000X-0.275000X0.200000X-0.275000X-0.200000X0.275000X-0.200000X0.275000X0.200000X0*%
%ADD19RoundRect,0.200000X-0.200000X-0.275000X0.200000X-0.275000X0.200000X0.275000X-0.200000X0.275000X0*%
%ADD20RoundRect,0.200000X-0.053033X0.335876X-0.335876X0.053033X0.053033X-0.335876X0.335876X-0.053033X0*%
%ADD21RoundRect,0.200000X0.275000X-0.200000X0.275000X0.200000X-0.275000X0.200000X-0.275000X-0.200000X0*%
%ADD22R,0.505000X0.260000*%
%ADD23R,1.000000X2.650000*%
%ADD24C,2.800000*%
%ADD25RoundRect,0.250000X0.650000X-0.325000X0.650000X0.325000X-0.650000X0.325000X-0.650000X-0.325000X0*%
%ADD26RoundRect,0.218750X0.256250X-0.218750X0.256250X0.218750X-0.256250X0.218750X-0.256250X-0.218750X0*%
%ADD27RoundRect,0.200000X0.200000X0.275000X-0.200000X0.275000X-0.200000X-0.275000X0.200000X-0.275000X0*%
%ADD28RoundRect,0.218750X-0.218750X-0.256250X0.218750X-0.256250X0.218750X0.256250X-0.218750X0.256250X0*%
%ADD29RoundRect,0.250000X0.550000X0.550000X-0.550000X0.550000X-0.550000X-0.550000X0.550000X-0.550000X0*%
%ADD30O,1.700000X1.100000*%
%ADD31R,1.200000X0.460000*%
%ADD32R,1.200000X0.660000*%
%ADD33R,1.200000X0.560000*%
%ADD34RoundRect,0.218750X-0.256250X0.218750X-0.256250X-0.218750X0.256250X-0.218750X0.256250X0.218750X0*%
%ADD35O,1.815000X0.356000*%
%ADD36RoundRect,0.250000X-0.650000X0.325000X-0.650000X-0.325000X0.650000X-0.325000X0.650000X0.325000X0*%
%ADD37RoundRect,0.140000X-0.170000X0.140000X-0.170000X-0.140000X0.170000X-0.140000X0.170000X0.140000X0*%
%ADD38R,0.800000X0.250000*%
%ADD39R,0.250000X0.800000*%
%ADD40R,4.800000X4.800000*%
%ADD41RoundRect,0.250000X-0.250000X-0.475000X0.250000X-0.475000X0.250000X0.475000X-0.250000X0.475000X0*%
%ADD42O,1.800000X0.588000*%
%ADD43RoundRect,0.200000X0.335876X0.053033X0.053033X0.335876X-0.335876X-0.053033X-0.053033X-0.335876X0*%
%ADD44C,1.200000*%
%ADD45R,1.600000X0.700000*%
%ADD46R,1.500000X1.200000*%
%ADD47R,2.200000X1.200000*%
%ADD48R,1.500000X1.600000*%
%ADD49RotRect,0.600000X1.100000X315.000000*%
G04 APERTURE END LIST*
D10*
%TO.C,J2*%
X127884000Y-90328000D03*
X131484000Y-90328000D03*
X135084000Y-90328000D03*
X138684000Y-90328000D03*
D11*
X127884000Y-84328000D03*
D12*
X131484000Y-84328000D03*
X135084000Y-84328000D03*
X138684000Y-84328000D03*
%TD*%
D13*
%TO.C,D2*%
X138227001Y-104902000D03*
X136652001Y-104902000D03*
%TD*%
D14*
%TO.C,C41*%
X144526000Y-43406000D03*
X144526000Y-42446000D03*
%TD*%
D15*
%TO.C,C19*%
X154940000Y-80650001D03*
X154940000Y-82550001D03*
%TD*%
D16*
%TO.C,C30*%
X150136000Y-51308000D03*
X148236000Y-51308000D03*
%TD*%
D17*
%TO.C,X3*%
X142748000Y-78486000D03*
X142748000Y-76286000D03*
X141048000Y-76286000D03*
X141048000Y-78486000D03*
%TD*%
D18*
%TO.C,R57*%
X159258000Y-42179499D03*
X159258000Y-43829499D03*
%TD*%
D19*
%TO.C,R30*%
X147956000Y-48768001D03*
X149606000Y-48768001D03*
%TD*%
D16*
%TO.C,C48*%
X150136000Y-30480000D03*
X148236000Y-30480000D03*
%TD*%
D20*
%TO.C,R4*%
X152983363Y-48438637D03*
X151816637Y-49605363D03*
%TD*%
D21*
%TO.C,R21*%
X159258000Y-47762001D03*
X159258000Y-46112001D03*
%TD*%
D13*
%TO.C,D16*%
X146329500Y-41148000D03*
X144754500Y-41148000D03*
%TD*%
D21*
%TO.C,R32*%
X157226000Y-81253000D03*
X157226000Y-79603000D03*
%TD*%
%TO.C,R38*%
X129794001Y-64770000D03*
X129794001Y-63120000D03*
%TD*%
D22*
%TO.C,U16*%
X151516000Y-83098000D03*
X151516000Y-83598000D03*
X151516000Y-84098000D03*
X151516000Y-84598000D03*
X151516000Y-85098000D03*
X151516000Y-85598000D03*
X153416000Y-85598000D03*
X153416000Y-85098000D03*
X153416000Y-84598000D03*
X153416000Y-84098000D03*
X153416000Y-83598000D03*
X153416000Y-83098000D03*
D23*
X152466000Y-84348000D03*
%TD*%
D12*
%TO.C,USB6*%
X152373500Y-55372000D03*
X150373500Y-55372000D03*
X148373500Y-55372000D03*
X146373500Y-55372000D03*
D24*
X145873500Y-58122000D03*
X152873500Y-58122000D03*
X145873500Y-52622000D03*
X152873500Y-52622000D03*
%TD*%
D14*
%TO.C,C26*%
X158496000Y-64996000D03*
X158496000Y-64036000D03*
%TD*%
D21*
%TO.C,R33*%
X157226000Y-64833000D03*
X157226000Y-63183000D03*
%TD*%
D25*
%TO.C,C43*%
X155702000Y-43859499D03*
X155702000Y-40909499D03*
%TD*%
D14*
%TO.C,C18*%
X158496000Y-81478000D03*
X158496000Y-80518000D03*
%TD*%
D26*
%TO.C,D12*%
X150114000Y-63779500D03*
X150114000Y-62204500D03*
%TD*%
D13*
%TO.C,D17*%
X146329500Y-48768000D03*
X144754500Y-48768000D03*
%TD*%
D27*
%TO.C,R54*%
X151701000Y-65278000D03*
X150051000Y-65278000D03*
%TD*%
D21*
%TO.C,R27*%
X126746000Y-64770000D03*
X126746000Y-63120000D03*
%TD*%
D22*
%TO.C,U17*%
X151516000Y-66325999D03*
X151516000Y-66825999D03*
X151516000Y-67325999D03*
X151516000Y-67825999D03*
X151516000Y-68325999D03*
X151516000Y-68825999D03*
X153416000Y-68825999D03*
X153416000Y-68325999D03*
X153416000Y-67825999D03*
X153416000Y-67325999D03*
X153416000Y-66825999D03*
X153416000Y-66325999D03*
D23*
X152466000Y-67575999D03*
%TD*%
D28*
%TO.C,D13*%
X153162000Y-60706000D03*
X154737000Y-60706000D03*
%TD*%
%TO.C,D10*%
X153162001Y-77470000D03*
X154737001Y-77470000D03*
%TD*%
D10*
%TO.C,J1*%
X138684000Y-44800000D03*
X135084000Y-44800000D03*
X131484000Y-44800000D03*
X127884000Y-44800000D03*
D29*
X138684000Y-50800000D03*
D12*
X135084000Y-50800000D03*
X131484000Y-50800000D03*
X127884000Y-50800000D03*
%TD*%
D30*
%TO.C,USB4*%
X158975500Y-74932000D03*
X162775500Y-74932000D03*
X162775500Y-66292000D03*
X158975500Y-66292000D03*
D31*
X158695500Y-71732000D03*
X158695500Y-70982000D03*
X158695500Y-70232000D03*
D32*
X158695500Y-67732000D03*
D33*
X158695500Y-68682000D03*
D31*
X158695500Y-69492000D03*
D33*
X158695500Y-72532000D03*
D32*
X158695500Y-73492000D03*
%TD*%
D12*
%TO.C,USB7*%
X152373500Y-34798000D03*
X150373500Y-34798000D03*
X148373500Y-34798000D03*
X146373500Y-34798000D03*
D24*
X145873500Y-37548000D03*
X152873500Y-37548000D03*
X145873500Y-32048000D03*
X152873500Y-32048000D03*
%TD*%
D34*
%TO.C,D15*%
X157734000Y-42216999D03*
X157734000Y-43791999D03*
%TD*%
D35*
%TO.C,U4*%
X144128000Y-110424000D03*
X144128000Y-109794000D03*
X144128000Y-109154000D03*
X144128000Y-108524000D03*
X144128000Y-107884000D03*
X144128000Y-107254000D03*
X144128000Y-106614000D03*
X144128000Y-105984000D03*
X138828000Y-105984000D03*
X138828000Y-106614000D03*
X138828000Y-107254000D03*
X138828000Y-107884000D03*
X138828000Y-108524000D03*
X138828000Y-109154000D03*
X138828000Y-109794000D03*
X138828000Y-110424000D03*
%TD*%
D27*
%TO.C,R51*%
X151701000Y-82042000D03*
X150051000Y-82042000D03*
%TD*%
D26*
%TO.C,D11*%
X150114000Y-80606500D03*
X150114000Y-79031500D03*
%TD*%
D36*
%TO.C,C45*%
X155702000Y-46081000D03*
X155702000Y-49031000D03*
%TD*%
D37*
%TO.C,C44*%
X153924000Y-46256000D03*
X153924000Y-47216000D03*
%TD*%
D26*
%TO.C,D14*%
X157734000Y-47724501D03*
X157734000Y-46149501D03*
%TD*%
D38*
%TO.C,U1*%
X140644000Y-69282000D03*
X140644000Y-68782000D03*
X140644000Y-68282000D03*
X140644000Y-67782000D03*
X140644000Y-67282000D03*
X140644000Y-66782000D03*
X140644000Y-66282000D03*
X140644000Y-65782000D03*
X140644000Y-65282000D03*
X140644000Y-64782000D03*
X140644000Y-64282000D03*
X140644000Y-63782000D03*
X140644000Y-63282000D03*
X140644000Y-62782000D03*
X140644000Y-62282000D03*
X140644000Y-61782000D03*
D39*
X139894000Y-61032000D03*
X139394000Y-61032000D03*
X138894000Y-61032000D03*
X138394000Y-61032000D03*
X137894000Y-61032000D03*
X137394000Y-61032000D03*
X136894000Y-61032000D03*
X136394000Y-61032000D03*
X135894000Y-61032000D03*
X135394000Y-61032000D03*
X134894000Y-61032000D03*
X134394000Y-61032000D03*
X133894000Y-61032000D03*
X133394000Y-61032000D03*
X132894000Y-61032000D03*
X132394000Y-61032000D03*
D38*
X131644000Y-61782000D03*
X131644000Y-62282000D03*
X131644000Y-62782000D03*
X131644000Y-63282000D03*
X131644000Y-63782000D03*
X131644000Y-64282000D03*
X131644000Y-64782000D03*
X131644000Y-65282000D03*
X131644000Y-65782000D03*
X131644000Y-66282000D03*
X131644000Y-66782000D03*
X131644000Y-67282000D03*
X131644000Y-67782000D03*
X131644000Y-68282000D03*
X131644000Y-68782000D03*
X131644000Y-69282000D03*
D39*
X132394000Y-70032000D03*
X132894000Y-70032000D03*
X133394000Y-70032000D03*
X133894000Y-70032000D03*
X134394000Y-70032000D03*
X134894000Y-70032000D03*
X135394000Y-70032000D03*
X135894000Y-70032000D03*
X136394000Y-70032000D03*
X136894000Y-70032000D03*
X137394000Y-70032000D03*
X137894000Y-70032000D03*
X138394000Y-70032000D03*
X138894000Y-70032000D03*
X139394000Y-70032000D03*
X139894000Y-70032000D03*
D40*
X136144000Y-65532000D03*
%TD*%
D21*
%TO.C,R28*%
X128269999Y-64769999D03*
X128269999Y-63119999D03*
%TD*%
D41*
%TO.C,C21*%
X153350001Y-64750000D03*
X155250001Y-64750000D03*
%TD*%
D30*
%TO.C,USB3*%
X159030000Y-91086000D03*
X162830000Y-91086000D03*
X162830000Y-82446000D03*
X159030000Y-82446000D03*
D31*
X158750000Y-87886000D03*
X158750000Y-87136000D03*
X158750000Y-86386000D03*
D32*
X158750000Y-83886000D03*
D33*
X158750000Y-84836000D03*
D31*
X158750000Y-85646000D03*
D33*
X158750000Y-88686000D03*
D32*
X158750000Y-89646000D03*
%TD*%
D42*
%TO.C,U7*%
X146498000Y-43058000D03*
X146498000Y-44328000D03*
X146498000Y-45588000D03*
X146498000Y-46858000D03*
X151698000Y-46858000D03*
X151698000Y-45588000D03*
X151698000Y-44328000D03*
X151698000Y-43058000D03*
%TD*%
D19*
%TO.C,R31*%
X147979499Y-41147999D03*
X149629499Y-41147999D03*
%TD*%
%TO.C,R55*%
X153099000Y-62230000D03*
X154749000Y-62230000D03*
%TD*%
%TO.C,R23*%
X153099000Y-78994000D03*
X154749000Y-78994000D03*
%TD*%
D43*
%TO.C,R3*%
X152983363Y-41223363D03*
X151816637Y-40056637D03*
%TD*%
D44*
%TO.C,Card1*%
X161036000Y-111632000D03*
X161036000Y-103632000D03*
D45*
X150036000Y-104432000D03*
X150036000Y-105532000D03*
X150036000Y-106632000D03*
X150036000Y-107732000D03*
X150036000Y-108832000D03*
X150036000Y-109932000D03*
X150036000Y-111032000D03*
X150036000Y-112132000D03*
D46*
X151036000Y-114432000D03*
D47*
X160636000Y-114432000D03*
X160636000Y-98932000D03*
D48*
X151036000Y-99832000D03*
D45*
X150036000Y-113232000D03*
%TD*%
D19*
%TO.C,R5*%
X140716000Y-104902000D03*
X142366000Y-104902000D03*
%TD*%
D14*
%TO.C,C42*%
X153924000Y-43684499D03*
X153924000Y-42724499D03*
%TD*%
D49*
%TO.C,U5*%
X128338299Y-59068198D03*
X129010051Y-59739949D03*
X129681802Y-60411701D03*
X131661701Y-58431802D03*
X130318198Y-57088299D03*
%TD*%
D21*
%TO.C,R52*%
X151638000Y-80644000D03*
X151638000Y-78994000D03*
%TD*%
%TO.C,R53*%
X151638000Y-63817000D03*
X151638000Y-62167000D03*
%TD*%
M02*
