%TF.GenerationSoftware,KiCad,Pcbnew,10.0.1*%
%TF.CreationDate,2026-07-23T21:38:32-07:00*%
%TF.ProjectId,USB_Hub_Schematic,5553425f-4875-4625-9f53-6368656d6174,rev?*%
%TF.SameCoordinates,Original*%
%TF.FileFunction,Soldermask,Bot*%
%TF.FilePolarity,Negative*%
%FSLAX46Y46*%
G04 Gerber Fmt 4.6, Leading zero omitted, Abs format (unit mm)*
G04 Created by KiCad (PCBNEW 10.0.1) date 2026-07-23 21:38:32*
%MOMM*%
%LPD*%
G01*
G04 APERTURE LIST*
G04 Aperture macros list*
%AMRoundRect*
0 Rectangle with rounded corners*
0 $1 Rounding radius*
0 $2 $3 $4 $5 $6 $7 $8 $9 X,Y pos of 4 corners*
0 Add a 4 corners polygon primitive as box body*
4,1,4,$2,$3,$4,$5,$6,$7,$8,$9,$2,$3,0*
0 Add four circle primitives for the rounded corners*
1,1,$1+$1,$2,$3*
1,1,$1+$1,$4,$5*
1,1,$1+$1,$6,$7*
1,1,$1+$1,$8,$9*
0 Add four rect primitives between the rounded corners*
20,1,$1+$1,$2,$3,$4,$5,0*
20,1,$1+$1,$4,$5,$6,$7,0*
20,1,$1+$1,$6,$7,$8,$9,0*
20,1,$1+$1,$8,$9,$2,$3,0*%
%AMRotRect*
0 Rectangle, with rotation*
0 The origin of the aperture is its center*
0 $1 length*
0 $2 width*
0 $3 Rotation angle, in degrees counterclockwise*
0 Add horizontal line*
21,1,$1,$2,0,0,$3*%
%AMFreePoly0*
4,1,36,0.710208,0.575232,0.724853,0.539877,0.724853,0.119888,0.710208,0.084533,0.674853,0.069888,0.505571,0.069888,0.154851,-0.280831,0.154851,-0.540106,0.140206,-0.575461,0.104851,-0.590106,-0.315138,-0.590106,-0.350493,-0.575461,-0.500462,-0.425491,-0.500505,-0.425474,-0.515150,-0.390119,-0.515150,-0.350126,-0.864997,-0.350126,-0.900352,-0.335481,-0.914997,-0.300126,-0.914997,-0.080112,
-0.900352,-0.044757,-0.864997,-0.030112,-0.515150,-0.030112,-0.515150,0.149873,-0.864997,0.149873,-0.900352,0.164518,-0.914997,0.199873,-0.914997,0.419887,-0.900352,0.455242,-0.864997,0.469887,-0.515150,0.469887,-0.515150,0.539877,-0.500505,0.575232,-0.465150,0.589877,0.674853,0.589877,0.710208,0.575232,0.710208,0.575232,$1*%
%AMFreePoly1*
4,1,45,0.635405,1.132762,0.650050,1.097407,0.650050,-1.097585,0.635405,-1.132940,0.600050,-1.147585,-0.394970,-1.147585,-0.430325,-1.132940,-0.444970,-1.097585,-0.444970,-0.917588,-0.799998,-0.917588,-0.835353,-0.902943,-0.849998,-0.867588,-0.849998,-0.647598,-0.835353,-0.612243,-0.799998,-0.597598,-0.444970,-0.597598,-0.444970,-0.417589,-0.799998,-0.417589,-0.835353,-0.402944,-0.849998,-0.367589,
-0.849998,-0.147599,-0.835353,-0.112244,-0.799998,-0.097599,-0.444970,-0.097599,-0.444970,0.082410,-0.799998,0.082410,-0.835353,0.097055,-0.849998,0.132410,-0.849998,0.352400,-0.835353,0.387755,-0.799998,0.402400,-0.444970,0.402400,-0.444970,0.582409,-0.799998,0.582409,-0.835353,0.597054,-0.849998,0.632409,-0.849998,0.852399,-0.835353,0.887754,-0.799998,0.902399,-0.444970,0.902399,
-0.444970,1.097407,-0.430325,1.132762,-0.394970,1.147407,0.600050,1.147407,0.635405,1.132762,0.635405,1.132762,$1*%
%AMFreePoly2*
4,1,45,0.430376,1.132762,0.445021,1.097407,0.445021,0.902399,0.799998,0.902399,0.835353,0.887754,0.849998,0.852399,0.849998,0.632409,0.835353,0.597054,0.799998,0.582409,0.445021,0.582409,0.445021,0.402400,0.799998,0.402400,0.835353,0.387755,0.849998,0.352400,0.849998,0.132410,0.835353,0.097055,0.799998,0.082410,0.445021,0.082410,0.445021,-0.097599,0.799998,-0.097599,
0.835353,-0.112244,0.849998,-0.147599,0.849998,-0.367589,0.835353,-0.402944,0.799998,-0.417589,0.445021,-0.417589,0.445021,-0.597598,0.799998,-0.597598,0.835353,-0.612243,0.849998,-0.647598,0.849998,-0.867588,0.835353,-0.902943,0.799998,-0.917588,0.445021,-0.917588,0.445021,-1.097585,0.430376,-1.132940,0.395021,-1.147585,-0.599999,-1.147585,-0.635354,-1.132940,-0.649999,-1.097585,
-0.649999,1.097407,-0.635354,1.132762,-0.599999,1.147407,0.395021,1.147407,0.430376,1.132762,0.430376,1.132762,$1*%
%AMFreePoly3*
4,1,34,0.500277,0.575207,0.514922,0.539852,0.514922,0.469862,0.864997,0.469862,0.900352,0.455217,0.914997,0.419862,0.914997,0.199847,0.900352,0.164492,0.864997,0.149847,0.514922,0.149847,0.514922,-0.030137,0.864997,-0.030137,0.900352,-0.044782,0.914997,-0.080137,0.914997,-0.300152,0.900352,-0.335507,0.864997,-0.350152,0.514917,-0.350152,0.514896,-0.540111,0.500248,-0.575465,
0.464896,-0.590106,-0.105080,-0.590106,-0.140435,-0.575461,-0.155080,-0.540106,-0.155080,-0.280834,-0.505823,0.069837,-0.675107,0.069837,-0.710462,0.084482,-0.725107,0.119837,-0.725107,0.539852,-0.710462,0.575207,-0.675107,0.589852,0.464922,0.589852,0.500277,0.575207,0.500277,0.575207,$1*%
G04 Aperture macros list end*
%ADD10RoundRect,0.200000X-0.275000X0.200000X-0.275000X-0.200000X0.275000X-0.200000X0.275000X0.200000X0*%
%ADD11RoundRect,0.225000X-0.250000X0.225000X-0.250000X-0.225000X0.250000X-0.225000X0.250000X0.225000X0*%
%ADD12RoundRect,0.200000X0.200000X0.275000X-0.200000X0.275000X-0.200000X-0.275000X0.200000X-0.275000X0*%
%ADD13RoundRect,0.200000X-0.200000X-0.275000X0.200000X-0.275000X0.200000X0.275000X-0.200000X0.275000X0*%
%ADD14RoundRect,0.200000X0.275000X-0.200000X0.275000X0.200000X-0.275000X0.200000X-0.275000X-0.200000X0*%
%ADD15O,0.200000X0.600000*%
%ADD16O,1.050000X0.400000*%
%ADD17R,1.050000X0.400000*%
%ADD18C,1.500000*%
%ADD19RoundRect,0.250000X-0.550000X-0.550000X0.550000X-0.550000X0.550000X0.550000X-0.550000X0.550000X0*%
%ADD20C,1.600000*%
%ADD21C,2.800000*%
%ADD22RoundRect,0.250000X0.550000X0.550000X-0.550000X0.550000X-0.550000X-0.550000X0.550000X-0.550000X0*%
%ADD23O,1.700000X1.100000*%
%ADD24C,1.200000*%
%ADD25RotRect,3.430000X1.780000X45.000000*%
%ADD26RoundRect,0.140000X0.170000X-0.140000X0.170000X0.140000X-0.170000X0.140000X-0.170000X-0.140000X0*%
%ADD27RoundRect,0.140000X0.140000X0.170000X-0.140000X0.170000X-0.140000X-0.170000X0.140000X-0.170000X0*%
%ADD28R,1.780000X3.430000*%
%ADD29RoundRect,0.225000X0.225000X0.250000X-0.225000X0.250000X-0.225000X-0.250000X0.225000X-0.250000X0*%
%ADD30RoundRect,0.250000X-0.475000X0.250000X-0.475000X-0.250000X0.475000X-0.250000X0.475000X0.250000X0*%
%ADD31RotRect,3.430000X1.780000X225.000000*%
%ADD32RoundRect,0.140000X-0.219203X-0.021213X-0.021213X-0.219203X0.219203X0.021213X0.021213X0.219203X0*%
%ADD33RoundRect,0.140000X-0.170000X0.140000X-0.170000X-0.140000X0.170000X-0.140000X0.170000X0.140000X0*%
%ADD34RoundRect,0.140000X-0.140000X-0.170000X0.140000X-0.170000X0.140000X0.170000X-0.140000X0.170000X0*%
%ADD35FreePoly0,90.000000*%
%ADD36FreePoly1,90.000000*%
%ADD37FreePoly2,90.000000*%
%ADD38FreePoly3,90.000000*%
%ADD39R,0.600000X0.220000*%
%ADD40R,3.430000X1.780000*%
%ADD41RoundRect,0.225000X-0.225000X-0.250000X0.225000X-0.250000X0.225000X0.250000X-0.225000X0.250000X0*%
%ADD42RoundRect,0.225000X0.250000X-0.225000X0.250000X0.225000X-0.250000X0.225000X-0.250000X-0.225000X0*%
%ADD43RoundRect,0.250000X-0.250000X-0.475000X0.250000X-0.475000X0.250000X0.475000X-0.250000X0.475000X0*%
G04 APERTURE END LIST*
D10*
%TO.C,R10*%
X140798000Y-41618000D03*
X140798000Y-39968000D03*
%TD*%
%TO.C,R16*%
X139274000Y-41618000D03*
X139274000Y-39968000D03*
%TD*%
D11*
%TO.C,C4*%
X136264000Y-42750000D03*
X136264000Y-41200000D03*
%TD*%
D12*
%TO.C,R15*%
X134865637Y-35500000D03*
X136515637Y-35500000D03*
%TD*%
D13*
%TO.C,R12*%
X141052000Y-36603000D03*
X139402000Y-36603000D03*
%TD*%
D12*
%TO.C,R13*%
X139402000Y-34888000D03*
X141052000Y-34888000D03*
%TD*%
D10*
%TO.C,R9*%
X137750000Y-42750000D03*
X137750000Y-41100000D03*
%TD*%
D14*
%TO.C,R11*%
X138004000Y-34825000D03*
X138004000Y-36475000D03*
%TD*%
D15*
%TO.C,U3*%
X136238001Y-40039000D03*
X136738001Y-40039000D03*
X137238001Y-40039000D03*
X137738001Y-40039000D03*
D16*
X137668001Y-39239000D03*
X137668001Y-38539000D03*
D15*
X137738001Y-37739000D03*
X137238001Y-37739000D03*
X136738001Y-37739000D03*
X136238001Y-37739000D03*
D16*
X136318001Y-38539000D03*
D17*
X136318001Y-39239000D03*
%TD*%
D18*
%TO.C,J2*%
X127884000Y-90328000D03*
X131484000Y-90328000D03*
X135084000Y-90328000D03*
X138684000Y-90328000D03*
D19*
X127884000Y-84328000D03*
D20*
X131484000Y-84328000D03*
X135084000Y-84328000D03*
X138684000Y-84328000D03*
%TD*%
%TO.C,USB6*%
X152373500Y-55372000D03*
X150373500Y-55372000D03*
X148373500Y-55372000D03*
X146373500Y-55372000D03*
D21*
X145873500Y-58122000D03*
X152873500Y-58122000D03*
X145873500Y-52622000D03*
X152873500Y-52622000D03*
%TD*%
D18*
%TO.C,J1*%
X138684000Y-44800000D03*
X135084000Y-44800000D03*
X131484000Y-44800000D03*
X127884000Y-44800000D03*
D22*
X138684000Y-50800000D03*
D20*
X135084000Y-50800000D03*
X131484000Y-50800000D03*
X127884000Y-50800000D03*
%TD*%
D23*
%TO.C,USB4*%
X158975500Y-74932000D03*
X162775500Y-74932000D03*
X162775500Y-66292000D03*
X158975500Y-66292000D03*
%TD*%
D20*
%TO.C,USB7*%
X152373500Y-34798000D03*
X150373500Y-34798000D03*
X148373500Y-34798000D03*
X146373500Y-34798000D03*
D21*
X145873500Y-37548000D03*
X152873500Y-37548000D03*
X145873500Y-32048000D03*
X152873500Y-32048000D03*
%TD*%
D23*
%TO.C,USB3*%
X159030000Y-91086000D03*
X162830000Y-91086000D03*
X162830000Y-82446000D03*
X159030000Y-82446000D03*
%TD*%
D24*
%TO.C,Card1*%
X161036000Y-111632000D03*
X161036000Y-103632000D03*
%TD*%
D11*
%TO.C,C5*%
X124750000Y-72225000D03*
X124750000Y-73775000D03*
%TD*%
D25*
%TO.C,U18*%
X126000000Y-55000000D03*
%TD*%
D26*
%TO.C,C9*%
X144018000Y-62992000D03*
X144018000Y-62032000D03*
%TD*%
D27*
%TO.C,C25*%
X133727999Y-72112002D03*
X132767999Y-72112002D03*
%TD*%
D28*
%TO.C,U15*%
X124750000Y-77000000D03*
%TD*%
D29*
%TO.C,C31*%
X144272000Y-66040000D03*
X142722000Y-66040000D03*
%TD*%
D28*
%TO.C,U14*%
X124714000Y-64008000D03*
%TD*%
D30*
%TO.C,C39*%
X155956000Y-63312000D03*
X155956000Y-65212000D03*
%TD*%
D31*
%TO.C,U19*%
X128250000Y-57000000D03*
%TD*%
D32*
%TO.C,C23*%
X144863178Y-68663178D03*
X145542000Y-69342000D03*
%TD*%
D11*
%TO.C,C1*%
X136906000Y-109728000D03*
X136906000Y-111278000D03*
%TD*%
D33*
%TO.C,C37*%
X150368000Y-81280000D03*
X150368000Y-82240000D03*
%TD*%
D10*
%TO.C,R2*%
X155448000Y-69025000D03*
X155448000Y-70675000D03*
%TD*%
D11*
%TO.C,C22*%
X140970000Y-73406000D03*
X140970000Y-74956000D03*
%TD*%
D33*
%TO.C,C40*%
X150368000Y-64544000D03*
X150368000Y-65504000D03*
%TD*%
D34*
%TO.C,C36*%
X136122999Y-56229999D03*
X137082999Y-56229999D03*
%TD*%
D14*
%TO.C,R47*%
X126237999Y-70738000D03*
X126237999Y-69088000D03*
%TD*%
D30*
%TO.C,C13*%
X151892000Y-80020000D03*
X151892000Y-81920000D03*
%TD*%
D35*
%TO.C,U2*%
X138743189Y-99627189D03*
D36*
X136753189Y-99707189D03*
D37*
X136753189Y-97607189D03*
D38*
X138743189Y-97677189D03*
D39*
X139333189Y-98157189D03*
X139333189Y-98657189D03*
X139333189Y-99157189D03*
%TD*%
D40*
%TO.C,U13*%
X129286000Y-64008000D03*
%TD*%
D13*
%TO.C,R56*%
X149734000Y-70104000D03*
X151384000Y-70104000D03*
%TD*%
D10*
%TO.C,R34*%
X127762001Y-69088000D03*
X127762001Y-70738000D03*
%TD*%
D40*
%TO.C,U9*%
X136143999Y-102107999D03*
%TD*%
D41*
%TO.C,C35*%
X136372000Y-57521000D03*
X137922000Y-57521000D03*
%TD*%
D13*
%TO.C,R49*%
X149543000Y-86868000D03*
X151193000Y-86868000D03*
%TD*%
D34*
%TO.C,C32*%
X130556000Y-70103999D03*
X131516000Y-70103999D03*
%TD*%
D12*
%TO.C,R29*%
X141604000Y-58420000D03*
X139954000Y-58420000D03*
%TD*%
D28*
%TO.C,U12*%
X138684000Y-75184000D03*
%TD*%
D14*
%TO.C,R7*%
X140649190Y-98107000D03*
X140649190Y-96457000D03*
%TD*%
D34*
%TO.C,C2*%
X139407188Y-101345999D03*
X140367188Y-101345999D03*
%TD*%
D30*
%TO.C,C12*%
X153924000Y-80020000D03*
X153924000Y-81920000D03*
%TD*%
D13*
%TO.C,R17*%
X142177000Y-71882000D03*
X143827000Y-71882000D03*
%TD*%
D42*
%TO.C,C20*%
X134874000Y-57788000D03*
X134874000Y-56238000D03*
%TD*%
D40*
%TO.C,U11*%
X138430000Y-71628000D03*
%TD*%
D29*
%TO.C,C28*%
X127788001Y-72136000D03*
X126238001Y-72136000D03*
%TD*%
D28*
%TO.C,U10*%
X133858000Y-98298000D03*
%TD*%
D30*
%TO.C,C17*%
X151892000Y-63312000D03*
X151892000Y-65212000D03*
%TD*%
D27*
%TO.C,C24*%
X142912000Y-70612000D03*
X141952000Y-70612000D03*
%TD*%
D14*
%TO.C,R6*%
X142173188Y-98106999D03*
X142173188Y-96456999D03*
%TD*%
D33*
%TO.C,C29*%
X136652000Y-74196000D03*
X136652000Y-75156000D03*
%TD*%
D30*
%TO.C,C33*%
X155956000Y-80020000D03*
X155956000Y-81920000D03*
%TD*%
D10*
%TO.C,R1*%
X155194000Y-86360000D03*
X155194000Y-88010000D03*
%TD*%
D43*
%TO.C,C3*%
X136397189Y-95758000D03*
X138297189Y-95758000D03*
%TD*%
D10*
%TO.C,R41*%
X124714000Y-69088000D03*
X124714000Y-70738000D03*
%TD*%
D30*
%TO.C,C38*%
X153924000Y-63312000D03*
X153924000Y-65212000D03*
%TD*%
D10*
%TO.C,R14*%
X133274000Y-36991000D03*
X133274000Y-35341000D03*
%TD*%
M02*
