%TF.GenerationSoftware,KiCad,Pcbnew,10.0.1*%
%TF.CreationDate,2026-07-23T21:38:32-07:00*%
%TF.ProjectId,USB_Hub_Schematic,5553425f-4875-4625-9f53-6368656d6174,rev?*%
%TF.SameCoordinates,Original*%
%TF.FileFunction,Legend,Bot*%
%TF.FilePolarity,Positive*%
%FSLAX46Y46*%
G04 Gerber Fmt 4.6, Leading zero omitted, Abs format (unit mm)*
G04 Created by KiCad (PCBNEW 10.0.1) date 2026-07-23 21:38:32*
%MOMM*%
%LPD*%
G01*
G04 APERTURE LIST*
%ADD10C,0.200000*%
%ADD11C,0.120000*%
%ADD12C,0.060000*%
%ADD13C,0.250000*%
%ADD14C,0.150000*%
G04 APERTURE END LIST*
D10*
X139154136Y-103617219D02*
X139630326Y-103617219D01*
X139630326Y-103617219D02*
X139677945Y-104093409D01*
X139677945Y-104093409D02*
X139630326Y-104045790D01*
X139630326Y-104045790D02*
X139535088Y-103998171D01*
X139535088Y-103998171D02*
X139296993Y-103998171D01*
X139296993Y-103998171D02*
X139201755Y-104045790D01*
X139201755Y-104045790D02*
X139154136Y-104093409D01*
X139154136Y-104093409D02*
X139106517Y-104188647D01*
X139106517Y-104188647D02*
X139106517Y-104426742D01*
X139106517Y-104426742D02*
X139154136Y-104521980D01*
X139154136Y-104521980D02*
X139201755Y-104569600D01*
X139201755Y-104569600D02*
X139296993Y-104617219D01*
X139296993Y-104617219D02*
X139535088Y-104617219D01*
X139535088Y-104617219D02*
X139630326Y-104569600D01*
X139630326Y-104569600D02*
X139677945Y-104521980D01*
X138820802Y-103617219D02*
X138487469Y-104617219D01*
X138487469Y-104617219D02*
X138154136Y-103617219D01*
X136535088Y-103664838D02*
X136630326Y-103617219D01*
X136630326Y-103617219D02*
X136773183Y-103617219D01*
X136773183Y-103617219D02*
X136916040Y-103664838D01*
X136916040Y-103664838D02*
X137011278Y-103760076D01*
X137011278Y-103760076D02*
X137058897Y-103855314D01*
X137058897Y-103855314D02*
X137106516Y-104045790D01*
X137106516Y-104045790D02*
X137106516Y-104188647D01*
X137106516Y-104188647D02*
X137058897Y-104379123D01*
X137058897Y-104379123D02*
X137011278Y-104474361D01*
X137011278Y-104474361D02*
X136916040Y-104569600D01*
X136916040Y-104569600D02*
X136773183Y-104617219D01*
X136773183Y-104617219D02*
X136677945Y-104617219D01*
X136677945Y-104617219D02*
X136535088Y-104569600D01*
X136535088Y-104569600D02*
X136487469Y-104521980D01*
X136487469Y-104521980D02*
X136487469Y-104188647D01*
X136487469Y-104188647D02*
X136677945Y-104188647D01*
X135582707Y-104617219D02*
X136058897Y-104617219D01*
X136058897Y-104617219D02*
X136058897Y-103617219D01*
X135058897Y-103617219D02*
X134868421Y-103617219D01*
X134868421Y-103617219D02*
X134773183Y-103664838D01*
X134773183Y-103664838D02*
X134677945Y-103760076D01*
X134677945Y-103760076D02*
X134630326Y-103950552D01*
X134630326Y-103950552D02*
X134630326Y-104283885D01*
X134630326Y-104283885D02*
X134677945Y-104474361D01*
X134677945Y-104474361D02*
X134773183Y-104569600D01*
X134773183Y-104569600D02*
X134868421Y-104617219D01*
X134868421Y-104617219D02*
X135058897Y-104617219D01*
X135058897Y-104617219D02*
X135154135Y-104569600D01*
X135154135Y-104569600D02*
X135249373Y-104474361D01*
X135249373Y-104474361D02*
X135296992Y-104283885D01*
X135296992Y-104283885D02*
X135296992Y-103950552D01*
X135296992Y-103950552D02*
X135249373Y-103760076D01*
X135249373Y-103760076D02*
X135154135Y-103664838D01*
X135154135Y-103664838D02*
X135058897Y-103617219D01*
X133868421Y-104093409D02*
X133725564Y-104141028D01*
X133725564Y-104141028D02*
X133677945Y-104188647D01*
X133677945Y-104188647D02*
X133630326Y-104283885D01*
X133630326Y-104283885D02*
X133630326Y-104426742D01*
X133630326Y-104426742D02*
X133677945Y-104521980D01*
X133677945Y-104521980D02*
X133725564Y-104569600D01*
X133725564Y-104569600D02*
X133820802Y-104617219D01*
X133820802Y-104617219D02*
X134201754Y-104617219D01*
X134201754Y-104617219D02*
X134201754Y-103617219D01*
X134201754Y-103617219D02*
X133868421Y-103617219D01*
X133868421Y-103617219D02*
X133773183Y-103664838D01*
X133773183Y-103664838D02*
X133725564Y-103712457D01*
X133725564Y-103712457D02*
X133677945Y-103807695D01*
X133677945Y-103807695D02*
X133677945Y-103902933D01*
X133677945Y-103902933D02*
X133725564Y-103998171D01*
X133725564Y-103998171D02*
X133773183Y-104045790D01*
X133773183Y-104045790D02*
X133868421Y-104093409D01*
X133868421Y-104093409D02*
X134201754Y-104093409D01*
X133249373Y-104331504D02*
X132773183Y-104331504D01*
X133344611Y-104617219D02*
X133011278Y-103617219D01*
X133011278Y-103617219D02*
X132677945Y-104617219D01*
X131868421Y-104617219D02*
X132344611Y-104617219D01*
X132344611Y-104617219D02*
X132344611Y-103617219D01*
X131117219Y-93774435D02*
X131117219Y-94393482D01*
X131117219Y-94393482D02*
X131498171Y-94060149D01*
X131498171Y-94060149D02*
X131498171Y-94203006D01*
X131498171Y-94203006D02*
X131545790Y-94298244D01*
X131545790Y-94298244D02*
X131593409Y-94345863D01*
X131593409Y-94345863D02*
X131688647Y-94393482D01*
X131688647Y-94393482D02*
X131926742Y-94393482D01*
X131926742Y-94393482D02*
X132021980Y-94345863D01*
X132021980Y-94345863D02*
X132069600Y-94298244D01*
X132069600Y-94298244D02*
X132117219Y-94203006D01*
X132117219Y-94203006D02*
X132117219Y-93917292D01*
X132117219Y-93917292D02*
X132069600Y-93822054D01*
X132069600Y-93822054D02*
X132021980Y-93774435D01*
X132021980Y-94822054D02*
X132069600Y-94869673D01*
X132069600Y-94869673D02*
X132117219Y-94822054D01*
X132117219Y-94822054D02*
X132069600Y-94774435D01*
X132069600Y-94774435D02*
X132021980Y-94822054D01*
X132021980Y-94822054D02*
X132117219Y-94822054D01*
X131117219Y-95203006D02*
X131117219Y-95822053D01*
X131117219Y-95822053D02*
X131498171Y-95488720D01*
X131498171Y-95488720D02*
X131498171Y-95631577D01*
X131498171Y-95631577D02*
X131545790Y-95726815D01*
X131545790Y-95726815D02*
X131593409Y-95774434D01*
X131593409Y-95774434D02*
X131688647Y-95822053D01*
X131688647Y-95822053D02*
X131926742Y-95822053D01*
X131926742Y-95822053D02*
X132021980Y-95774434D01*
X132021980Y-95774434D02*
X132069600Y-95726815D01*
X132069600Y-95726815D02*
X132117219Y-95631577D01*
X132117219Y-95631577D02*
X132117219Y-95345863D01*
X132117219Y-95345863D02*
X132069600Y-95250625D01*
X132069600Y-95250625D02*
X132021980Y-95203006D01*
X131117219Y-96107768D02*
X132117219Y-96441101D01*
X132117219Y-96441101D02*
X131117219Y-96774434D01*
X131164838Y-98393482D02*
X131117219Y-98298244D01*
X131117219Y-98298244D02*
X131117219Y-98155387D01*
X131117219Y-98155387D02*
X131164838Y-98012530D01*
X131164838Y-98012530D02*
X131260076Y-97917292D01*
X131260076Y-97917292D02*
X131355314Y-97869673D01*
X131355314Y-97869673D02*
X131545790Y-97822054D01*
X131545790Y-97822054D02*
X131688647Y-97822054D01*
X131688647Y-97822054D02*
X131879123Y-97869673D01*
X131879123Y-97869673D02*
X131974361Y-97917292D01*
X131974361Y-97917292D02*
X132069600Y-98012530D01*
X132069600Y-98012530D02*
X132117219Y-98155387D01*
X132117219Y-98155387D02*
X132117219Y-98250625D01*
X132117219Y-98250625D02*
X132069600Y-98393482D01*
X132069600Y-98393482D02*
X132021980Y-98441101D01*
X132021980Y-98441101D02*
X131688647Y-98441101D01*
X131688647Y-98441101D02*
X131688647Y-98250625D01*
X132117219Y-99345863D02*
X132117219Y-98869673D01*
X132117219Y-98869673D02*
X131117219Y-98869673D01*
X131117219Y-99869673D02*
X131117219Y-100060149D01*
X131117219Y-100060149D02*
X131164838Y-100155387D01*
X131164838Y-100155387D02*
X131260076Y-100250625D01*
X131260076Y-100250625D02*
X131450552Y-100298244D01*
X131450552Y-100298244D02*
X131783885Y-100298244D01*
X131783885Y-100298244D02*
X131974361Y-100250625D01*
X131974361Y-100250625D02*
X132069600Y-100155387D01*
X132069600Y-100155387D02*
X132117219Y-100060149D01*
X132117219Y-100060149D02*
X132117219Y-99869673D01*
X132117219Y-99869673D02*
X132069600Y-99774435D01*
X132069600Y-99774435D02*
X131974361Y-99679197D01*
X131974361Y-99679197D02*
X131783885Y-99631578D01*
X131783885Y-99631578D02*
X131450552Y-99631578D01*
X131450552Y-99631578D02*
X131260076Y-99679197D01*
X131260076Y-99679197D02*
X131164838Y-99774435D01*
X131164838Y-99774435D02*
X131117219Y-99869673D01*
X131593409Y-101060149D02*
X131641028Y-101203006D01*
X131641028Y-101203006D02*
X131688647Y-101250625D01*
X131688647Y-101250625D02*
X131783885Y-101298244D01*
X131783885Y-101298244D02*
X131926742Y-101298244D01*
X131926742Y-101298244D02*
X132021980Y-101250625D01*
X132021980Y-101250625D02*
X132069600Y-101203006D01*
X132069600Y-101203006D02*
X132117219Y-101107768D01*
X132117219Y-101107768D02*
X132117219Y-100726816D01*
X132117219Y-100726816D02*
X131117219Y-100726816D01*
X131117219Y-100726816D02*
X131117219Y-101060149D01*
X131117219Y-101060149D02*
X131164838Y-101155387D01*
X131164838Y-101155387D02*
X131212457Y-101203006D01*
X131212457Y-101203006D02*
X131307695Y-101250625D01*
X131307695Y-101250625D02*
X131402933Y-101250625D01*
X131402933Y-101250625D02*
X131498171Y-101203006D01*
X131498171Y-101203006D02*
X131545790Y-101155387D01*
X131545790Y-101155387D02*
X131593409Y-101060149D01*
X131593409Y-101060149D02*
X131593409Y-100726816D01*
X131831504Y-101679197D02*
X131831504Y-102155387D01*
X132117219Y-101583959D02*
X131117219Y-101917292D01*
X131117219Y-101917292D02*
X132117219Y-102250625D01*
X132117219Y-103060149D02*
X132117219Y-102583959D01*
X132117219Y-102583959D02*
X131117219Y-102583959D01*
X142856517Y-78617219D02*
X143427945Y-78617219D01*
X143142231Y-78617219D02*
X143142231Y-77617219D01*
X143142231Y-77617219D02*
X143237469Y-77760076D01*
X143237469Y-77760076D02*
X143332707Y-77855314D01*
X143332707Y-77855314D02*
X143427945Y-77902933D01*
X142427945Y-78521980D02*
X142380326Y-78569600D01*
X142380326Y-78569600D02*
X142427945Y-78617219D01*
X142427945Y-78617219D02*
X142475564Y-78569600D01*
X142475564Y-78569600D02*
X142427945Y-78521980D01*
X142427945Y-78521980D02*
X142427945Y-78617219D01*
X141808898Y-78045790D02*
X141904136Y-77998171D01*
X141904136Y-77998171D02*
X141951755Y-77950552D01*
X141951755Y-77950552D02*
X141999374Y-77855314D01*
X141999374Y-77855314D02*
X141999374Y-77807695D01*
X141999374Y-77807695D02*
X141951755Y-77712457D01*
X141951755Y-77712457D02*
X141904136Y-77664838D01*
X141904136Y-77664838D02*
X141808898Y-77617219D01*
X141808898Y-77617219D02*
X141618422Y-77617219D01*
X141618422Y-77617219D02*
X141523184Y-77664838D01*
X141523184Y-77664838D02*
X141475565Y-77712457D01*
X141475565Y-77712457D02*
X141427946Y-77807695D01*
X141427946Y-77807695D02*
X141427946Y-77855314D01*
X141427946Y-77855314D02*
X141475565Y-77950552D01*
X141475565Y-77950552D02*
X141523184Y-77998171D01*
X141523184Y-77998171D02*
X141618422Y-78045790D01*
X141618422Y-78045790D02*
X141808898Y-78045790D01*
X141808898Y-78045790D02*
X141904136Y-78093409D01*
X141904136Y-78093409D02*
X141951755Y-78141028D01*
X141951755Y-78141028D02*
X141999374Y-78236266D01*
X141999374Y-78236266D02*
X141999374Y-78426742D01*
X141999374Y-78426742D02*
X141951755Y-78521980D01*
X141951755Y-78521980D02*
X141904136Y-78569600D01*
X141904136Y-78569600D02*
X141808898Y-78617219D01*
X141808898Y-78617219D02*
X141618422Y-78617219D01*
X141618422Y-78617219D02*
X141523184Y-78569600D01*
X141523184Y-78569600D02*
X141475565Y-78521980D01*
X141475565Y-78521980D02*
X141427946Y-78426742D01*
X141427946Y-78426742D02*
X141427946Y-78236266D01*
X141427946Y-78236266D02*
X141475565Y-78141028D01*
X141475565Y-78141028D02*
X141523184Y-78093409D01*
X141523184Y-78093409D02*
X141618422Y-78045790D01*
X141142231Y-77617219D02*
X140808898Y-78617219D01*
X140808898Y-78617219D02*
X140475565Y-77617219D01*
X139427945Y-78331504D02*
X138951755Y-78331504D01*
X139523183Y-78617219D02*
X139189850Y-77617219D01*
X139189850Y-77617219D02*
X138856517Y-78617219D01*
X138523183Y-78617219D02*
X138523183Y-77617219D01*
X138523183Y-77617219D02*
X137951755Y-78617219D01*
X137951755Y-78617219D02*
X137951755Y-77617219D01*
X137523183Y-78331504D02*
X137046993Y-78331504D01*
X137618421Y-78617219D02*
X137285088Y-77617219D01*
X137285088Y-77617219D02*
X136951755Y-78617219D01*
X136142231Y-78617219D02*
X136618421Y-78617219D01*
X136618421Y-78617219D02*
X136618421Y-77617219D01*
X135618421Y-77617219D02*
X135427945Y-77617219D01*
X135427945Y-77617219D02*
X135332707Y-77664838D01*
X135332707Y-77664838D02*
X135237469Y-77760076D01*
X135237469Y-77760076D02*
X135189850Y-77950552D01*
X135189850Y-77950552D02*
X135189850Y-78283885D01*
X135189850Y-78283885D02*
X135237469Y-78474361D01*
X135237469Y-78474361D02*
X135332707Y-78569600D01*
X135332707Y-78569600D02*
X135427945Y-78617219D01*
X135427945Y-78617219D02*
X135618421Y-78617219D01*
X135618421Y-78617219D02*
X135713659Y-78569600D01*
X135713659Y-78569600D02*
X135808897Y-78474361D01*
X135808897Y-78474361D02*
X135856516Y-78283885D01*
X135856516Y-78283885D02*
X135856516Y-77950552D01*
X135856516Y-77950552D02*
X135808897Y-77760076D01*
X135808897Y-77760076D02*
X135713659Y-77664838D01*
X135713659Y-77664838D02*
X135618421Y-77617219D01*
X134237469Y-77664838D02*
X134332707Y-77617219D01*
X134332707Y-77617219D02*
X134475564Y-77617219D01*
X134475564Y-77617219D02*
X134618421Y-77664838D01*
X134618421Y-77664838D02*
X134713659Y-77760076D01*
X134713659Y-77760076D02*
X134761278Y-77855314D01*
X134761278Y-77855314D02*
X134808897Y-78045790D01*
X134808897Y-78045790D02*
X134808897Y-78188647D01*
X134808897Y-78188647D02*
X134761278Y-78379123D01*
X134761278Y-78379123D02*
X134713659Y-78474361D01*
X134713659Y-78474361D02*
X134618421Y-78569600D01*
X134618421Y-78569600D02*
X134475564Y-78617219D01*
X134475564Y-78617219D02*
X134380326Y-78617219D01*
X134380326Y-78617219D02*
X134237469Y-78569600D01*
X134237469Y-78569600D02*
X134189850Y-78521980D01*
X134189850Y-78521980D02*
X134189850Y-78188647D01*
X134189850Y-78188647D02*
X134380326Y-78188647D01*
X143475564Y-69117219D02*
X142856517Y-69117219D01*
X142856517Y-69117219D02*
X143189850Y-69498171D01*
X143189850Y-69498171D02*
X143046993Y-69498171D01*
X143046993Y-69498171D02*
X142951755Y-69545790D01*
X142951755Y-69545790D02*
X142904136Y-69593409D01*
X142904136Y-69593409D02*
X142856517Y-69688647D01*
X142856517Y-69688647D02*
X142856517Y-69926742D01*
X142856517Y-69926742D02*
X142904136Y-70021980D01*
X142904136Y-70021980D02*
X142951755Y-70069600D01*
X142951755Y-70069600D02*
X143046993Y-70117219D01*
X143046993Y-70117219D02*
X143332707Y-70117219D01*
X143332707Y-70117219D02*
X143427945Y-70069600D01*
X143427945Y-70069600D02*
X143475564Y-70021980D01*
X142427945Y-70021980D02*
X142380326Y-70069600D01*
X142380326Y-70069600D02*
X142427945Y-70117219D01*
X142427945Y-70117219D02*
X142475564Y-70069600D01*
X142475564Y-70069600D02*
X142427945Y-70021980D01*
X142427945Y-70021980D02*
X142427945Y-70117219D01*
X142046993Y-69117219D02*
X141427946Y-69117219D01*
X141427946Y-69117219D02*
X141761279Y-69498171D01*
X141761279Y-69498171D02*
X141618422Y-69498171D01*
X141618422Y-69498171D02*
X141523184Y-69545790D01*
X141523184Y-69545790D02*
X141475565Y-69593409D01*
X141475565Y-69593409D02*
X141427946Y-69688647D01*
X141427946Y-69688647D02*
X141427946Y-69926742D01*
X141427946Y-69926742D02*
X141475565Y-70021980D01*
X141475565Y-70021980D02*
X141523184Y-70069600D01*
X141523184Y-70069600D02*
X141618422Y-70117219D01*
X141618422Y-70117219D02*
X141904136Y-70117219D01*
X141904136Y-70117219D02*
X141999374Y-70069600D01*
X141999374Y-70069600D02*
X142046993Y-70021980D01*
X141142231Y-69117219D02*
X140808898Y-70117219D01*
X140808898Y-70117219D02*
X140475565Y-69117219D01*
X139427945Y-69831504D02*
X138951755Y-69831504D01*
X139523183Y-70117219D02*
X139189850Y-69117219D01*
X139189850Y-69117219D02*
X138856517Y-70117219D01*
X138523183Y-70117219D02*
X138523183Y-69117219D01*
X138523183Y-69117219D02*
X137951755Y-70117219D01*
X137951755Y-70117219D02*
X137951755Y-69117219D01*
X137523183Y-69831504D02*
X137046993Y-69831504D01*
X137618421Y-70117219D02*
X137285088Y-69117219D01*
X137285088Y-69117219D02*
X136951755Y-70117219D01*
X136142231Y-70117219D02*
X136618421Y-70117219D01*
X136618421Y-70117219D02*
X136618421Y-69117219D01*
X135618421Y-69117219D02*
X135427945Y-69117219D01*
X135427945Y-69117219D02*
X135332707Y-69164838D01*
X135332707Y-69164838D02*
X135237469Y-69260076D01*
X135237469Y-69260076D02*
X135189850Y-69450552D01*
X135189850Y-69450552D02*
X135189850Y-69783885D01*
X135189850Y-69783885D02*
X135237469Y-69974361D01*
X135237469Y-69974361D02*
X135332707Y-70069600D01*
X135332707Y-70069600D02*
X135427945Y-70117219D01*
X135427945Y-70117219D02*
X135618421Y-70117219D01*
X135618421Y-70117219D02*
X135713659Y-70069600D01*
X135713659Y-70069600D02*
X135808897Y-69974361D01*
X135808897Y-69974361D02*
X135856516Y-69783885D01*
X135856516Y-69783885D02*
X135856516Y-69450552D01*
X135856516Y-69450552D02*
X135808897Y-69260076D01*
X135808897Y-69260076D02*
X135713659Y-69164838D01*
X135713659Y-69164838D02*
X135618421Y-69117219D01*
X134237469Y-69164838D02*
X134332707Y-69117219D01*
X134332707Y-69117219D02*
X134475564Y-69117219D01*
X134475564Y-69117219D02*
X134618421Y-69164838D01*
X134618421Y-69164838D02*
X134713659Y-69260076D01*
X134713659Y-69260076D02*
X134761278Y-69355314D01*
X134761278Y-69355314D02*
X134808897Y-69545790D01*
X134808897Y-69545790D02*
X134808897Y-69688647D01*
X134808897Y-69688647D02*
X134761278Y-69879123D01*
X134761278Y-69879123D02*
X134713659Y-69974361D01*
X134713659Y-69974361D02*
X134618421Y-70069600D01*
X134618421Y-70069600D02*
X134475564Y-70117219D01*
X134475564Y-70117219D02*
X134380326Y-70117219D01*
X134380326Y-70117219D02*
X134237469Y-70069600D01*
X134237469Y-70069600D02*
X134189850Y-70021980D01*
X134189850Y-70021980D02*
X134189850Y-69688647D01*
X134189850Y-69688647D02*
X134380326Y-69688647D01*
X126382780Y-78308898D02*
X126858971Y-78642231D01*
X126382780Y-78880326D02*
X127382780Y-78880326D01*
X127382780Y-78880326D02*
X127382780Y-78499374D01*
X127382780Y-78499374D02*
X127335161Y-78404136D01*
X127335161Y-78404136D02*
X127287542Y-78356517D01*
X127287542Y-78356517D02*
X127192304Y-78308898D01*
X127192304Y-78308898D02*
X127049447Y-78308898D01*
X127049447Y-78308898D02*
X126954209Y-78356517D01*
X126954209Y-78356517D02*
X126906590Y-78404136D01*
X126906590Y-78404136D02*
X126858971Y-78499374D01*
X126858971Y-78499374D02*
X126858971Y-78880326D01*
X126906590Y-77880326D02*
X126906590Y-77546993D01*
X126382780Y-77404136D02*
X126382780Y-77880326D01*
X126382780Y-77880326D02*
X127382780Y-77880326D01*
X127382780Y-77880326D02*
X127382780Y-77404136D01*
X126430400Y-77023183D02*
X126382780Y-76880326D01*
X126382780Y-76880326D02*
X126382780Y-76642231D01*
X126382780Y-76642231D02*
X126430400Y-76546993D01*
X126430400Y-76546993D02*
X126478019Y-76499374D01*
X126478019Y-76499374D02*
X126573257Y-76451755D01*
X126573257Y-76451755D02*
X126668495Y-76451755D01*
X126668495Y-76451755D02*
X126763733Y-76499374D01*
X126763733Y-76499374D02*
X126811352Y-76546993D01*
X126811352Y-76546993D02*
X126858971Y-76642231D01*
X126858971Y-76642231D02*
X126906590Y-76832707D01*
X126906590Y-76832707D02*
X126954209Y-76927945D01*
X126954209Y-76927945D02*
X127001828Y-76975564D01*
X127001828Y-76975564D02*
X127097066Y-77023183D01*
X127097066Y-77023183D02*
X127192304Y-77023183D01*
X127192304Y-77023183D02*
X127287542Y-76975564D01*
X127287542Y-76975564D02*
X127335161Y-76927945D01*
X127335161Y-76927945D02*
X127382780Y-76832707D01*
X127382780Y-76832707D02*
X127382780Y-76594612D01*
X127382780Y-76594612D02*
X127335161Y-76451755D01*
X126906590Y-76023183D02*
X126906590Y-75689850D01*
X126382780Y-75546993D02*
X126382780Y-76023183D01*
X126382780Y-76023183D02*
X127382780Y-76023183D01*
X127382780Y-76023183D02*
X127382780Y-75546993D01*
X127382780Y-75261278D02*
X127382780Y-74689850D01*
X126382780Y-74975564D02*
X127382780Y-74975564D01*
X132927945Y-66569600D02*
X132785088Y-66617219D01*
X132785088Y-66617219D02*
X132546993Y-66617219D01*
X132546993Y-66617219D02*
X132451755Y-66569600D01*
X132451755Y-66569600D02*
X132404136Y-66521980D01*
X132404136Y-66521980D02*
X132356517Y-66426742D01*
X132356517Y-66426742D02*
X132356517Y-66331504D01*
X132356517Y-66331504D02*
X132404136Y-66236266D01*
X132404136Y-66236266D02*
X132451755Y-66188647D01*
X132451755Y-66188647D02*
X132546993Y-66141028D01*
X132546993Y-66141028D02*
X132737469Y-66093409D01*
X132737469Y-66093409D02*
X132832707Y-66045790D01*
X132832707Y-66045790D02*
X132880326Y-65998171D01*
X132880326Y-65998171D02*
X132927945Y-65902933D01*
X132927945Y-65902933D02*
X132927945Y-65807695D01*
X132927945Y-65807695D02*
X132880326Y-65712457D01*
X132880326Y-65712457D02*
X132832707Y-65664838D01*
X132832707Y-65664838D02*
X132737469Y-65617219D01*
X132737469Y-65617219D02*
X132499374Y-65617219D01*
X132499374Y-65617219D02*
X132356517Y-65664838D01*
X131927945Y-65617219D02*
X131927945Y-66426742D01*
X131927945Y-66426742D02*
X131880326Y-66521980D01*
X131880326Y-66521980D02*
X131832707Y-66569600D01*
X131832707Y-66569600D02*
X131737469Y-66617219D01*
X131737469Y-66617219D02*
X131546993Y-66617219D01*
X131546993Y-66617219D02*
X131451755Y-66569600D01*
X131451755Y-66569600D02*
X131404136Y-66521980D01*
X131404136Y-66521980D02*
X131356517Y-66426742D01*
X131356517Y-66426742D02*
X131356517Y-65617219D01*
X130927945Y-66569600D02*
X130785088Y-66617219D01*
X130785088Y-66617219D02*
X130546993Y-66617219D01*
X130546993Y-66617219D02*
X130451755Y-66569600D01*
X130451755Y-66569600D02*
X130404136Y-66521980D01*
X130404136Y-66521980D02*
X130356517Y-66426742D01*
X130356517Y-66426742D02*
X130356517Y-66331504D01*
X130356517Y-66331504D02*
X130404136Y-66236266D01*
X130404136Y-66236266D02*
X130451755Y-66188647D01*
X130451755Y-66188647D02*
X130546993Y-66141028D01*
X130546993Y-66141028D02*
X130737469Y-66093409D01*
X130737469Y-66093409D02*
X130832707Y-66045790D01*
X130832707Y-66045790D02*
X130880326Y-65998171D01*
X130880326Y-65998171D02*
X130927945Y-65902933D01*
X130927945Y-65902933D02*
X130927945Y-65807695D01*
X130927945Y-65807695D02*
X130880326Y-65712457D01*
X130880326Y-65712457D02*
X130832707Y-65664838D01*
X130832707Y-65664838D02*
X130737469Y-65617219D01*
X130737469Y-65617219D02*
X130499374Y-65617219D01*
X130499374Y-65617219D02*
X130356517Y-65664838D01*
X129927945Y-66617219D02*
X129927945Y-65617219D01*
X129927945Y-65617219D02*
X129546993Y-65617219D01*
X129546993Y-65617219D02*
X129451755Y-65664838D01*
X129451755Y-65664838D02*
X129404136Y-65712457D01*
X129404136Y-65712457D02*
X129356517Y-65807695D01*
X129356517Y-65807695D02*
X129356517Y-65950552D01*
X129356517Y-65950552D02*
X129404136Y-66045790D01*
X129404136Y-66045790D02*
X129451755Y-66093409D01*
X129451755Y-66093409D02*
X129546993Y-66141028D01*
X129546993Y-66141028D02*
X129927945Y-66141028D01*
X128927945Y-66617219D02*
X128927945Y-65617219D01*
X128451755Y-66617219D02*
X128451755Y-65617219D01*
X128451755Y-65617219D02*
X127880327Y-66617219D01*
X127880327Y-66617219D02*
X127880327Y-65617219D01*
X127404136Y-66617219D02*
X127404136Y-65617219D01*
X127404136Y-65617219D02*
X127166041Y-65617219D01*
X127166041Y-65617219D02*
X127023184Y-65664838D01*
X127023184Y-65664838D02*
X126927946Y-65760076D01*
X126927946Y-65760076D02*
X126880327Y-65855314D01*
X126880327Y-65855314D02*
X126832708Y-66045790D01*
X126832708Y-66045790D02*
X126832708Y-66188647D01*
X126832708Y-66188647D02*
X126880327Y-66379123D01*
X126880327Y-66379123D02*
X126927946Y-66474361D01*
X126927946Y-66474361D02*
X127023184Y-66569600D01*
X127023184Y-66569600D02*
X127166041Y-66617219D01*
X127166041Y-66617219D02*
X127404136Y-66617219D01*
X126773183Y-60617219D02*
X126439850Y-61617219D01*
X126439850Y-61617219D02*
X126106517Y-60617219D01*
X125439850Y-61093409D02*
X125296993Y-61141028D01*
X125296993Y-61141028D02*
X125249374Y-61188647D01*
X125249374Y-61188647D02*
X125201755Y-61283885D01*
X125201755Y-61283885D02*
X125201755Y-61426742D01*
X125201755Y-61426742D02*
X125249374Y-61521980D01*
X125249374Y-61521980D02*
X125296993Y-61569600D01*
X125296993Y-61569600D02*
X125392231Y-61617219D01*
X125392231Y-61617219D02*
X125773183Y-61617219D01*
X125773183Y-61617219D02*
X125773183Y-60617219D01*
X125773183Y-60617219D02*
X125439850Y-60617219D01*
X125439850Y-60617219D02*
X125344612Y-60664838D01*
X125344612Y-60664838D02*
X125296993Y-60712457D01*
X125296993Y-60712457D02*
X125249374Y-60807695D01*
X125249374Y-60807695D02*
X125249374Y-60902933D01*
X125249374Y-60902933D02*
X125296993Y-60998171D01*
X125296993Y-60998171D02*
X125344612Y-61045790D01*
X125344612Y-61045790D02*
X125439850Y-61093409D01*
X125439850Y-61093409D02*
X125773183Y-61093409D01*
X124773183Y-60617219D02*
X124773183Y-61426742D01*
X124773183Y-61426742D02*
X124725564Y-61521980D01*
X124725564Y-61521980D02*
X124677945Y-61569600D01*
X124677945Y-61569600D02*
X124582707Y-61617219D01*
X124582707Y-61617219D02*
X124392231Y-61617219D01*
X124392231Y-61617219D02*
X124296993Y-61569600D01*
X124296993Y-61569600D02*
X124249374Y-61521980D01*
X124249374Y-61521980D02*
X124201755Y-61426742D01*
X124201755Y-61426742D02*
X124201755Y-60617219D01*
X123773183Y-61569600D02*
X123630326Y-61617219D01*
X123630326Y-61617219D02*
X123392231Y-61617219D01*
X123392231Y-61617219D02*
X123296993Y-61569600D01*
X123296993Y-61569600D02*
X123249374Y-61521980D01*
X123249374Y-61521980D02*
X123201755Y-61426742D01*
X123201755Y-61426742D02*
X123201755Y-61331504D01*
X123201755Y-61331504D02*
X123249374Y-61236266D01*
X123249374Y-61236266D02*
X123296993Y-61188647D01*
X123296993Y-61188647D02*
X123392231Y-61141028D01*
X123392231Y-61141028D02*
X123582707Y-61093409D01*
X123582707Y-61093409D02*
X123677945Y-61045790D01*
X123677945Y-61045790D02*
X123725564Y-60998171D01*
X123725564Y-60998171D02*
X123773183Y-60902933D01*
X123773183Y-60902933D02*
X123773183Y-60807695D01*
X123773183Y-60807695D02*
X123725564Y-60712457D01*
X123725564Y-60712457D02*
X123677945Y-60664838D01*
X123677945Y-60664838D02*
X123582707Y-60617219D01*
X123582707Y-60617219D02*
X123344612Y-60617219D01*
X123344612Y-60617219D02*
X123201755Y-60664838D01*
X131150491Y-56540711D02*
X131857598Y-55833604D01*
X131857598Y-55833604D02*
X131689239Y-55665245D01*
X131689239Y-55665245D02*
X131554552Y-55597902D01*
X131554552Y-55597902D02*
X131419865Y-55597902D01*
X131419865Y-55597902D02*
X131318850Y-55631573D01*
X131318850Y-55631573D02*
X131150491Y-55732589D01*
X131150491Y-55732589D02*
X131049476Y-55833604D01*
X131049476Y-55833604D02*
X130948461Y-56001963D01*
X130948461Y-56001963D02*
X130914789Y-56102978D01*
X130914789Y-56102978D02*
X130914789Y-56237665D01*
X130914789Y-56237665D02*
X130982133Y-56372352D01*
X130982133Y-56372352D02*
X131150491Y-56540711D01*
X130679087Y-55665245D02*
X130342369Y-55328528D01*
X130544400Y-55934619D02*
X131015804Y-54991810D01*
X131015804Y-54991810D02*
X130072995Y-55463215D01*
X130645415Y-54621421D02*
X130241354Y-54217360D01*
X129736278Y-55126497D02*
X130443384Y-54419390D01*
X129534247Y-54520405D02*
X129197530Y-54183688D01*
X129399560Y-54789779D02*
X129870965Y-53846970D01*
X129870965Y-53846970D02*
X128928155Y-54318375D01*
X128019774Y-53275306D02*
X128019774Y-53342650D01*
X128019774Y-53342650D02*
X128087117Y-53477337D01*
X128087117Y-53477337D02*
X128154461Y-53544680D01*
X128154461Y-53544680D02*
X128289148Y-53612024D01*
X128289148Y-53612024D02*
X128423835Y-53612024D01*
X128423835Y-53612024D02*
X128524850Y-53578352D01*
X128524850Y-53578352D02*
X128693209Y-53477337D01*
X128693209Y-53477337D02*
X128794224Y-53376321D01*
X128794224Y-53376321D02*
X128895239Y-53207963D01*
X128895239Y-53207963D02*
X128928911Y-53106947D01*
X128928911Y-53106947D02*
X128928911Y-52972260D01*
X128928911Y-52972260D02*
X128861568Y-52837573D01*
X128861568Y-52837573D02*
X128794224Y-52770230D01*
X128794224Y-52770230D02*
X128659537Y-52702886D01*
X128659537Y-52702886D02*
X128592194Y-52702886D01*
X127312667Y-52702886D02*
X127649385Y-53039604D01*
X127649385Y-53039604D02*
X128356491Y-52332497D01*
X127076965Y-52467184D02*
X127784071Y-51760077D01*
X126672904Y-52063123D02*
X127380010Y-51962108D01*
X127380010Y-51356016D02*
X127380010Y-52164138D01*
%TO.C,R10*%
D11*
X141320500Y-40555742D02*
X141320500Y-41030258D01*
X140275500Y-40555742D02*
X140275500Y-41030258D01*
%TO.C,R16*%
X139796500Y-40555742D02*
X139796500Y-41030258D01*
X138751500Y-40555742D02*
X138751500Y-41030258D01*
%TO.C,C4*%
X136774000Y-41834420D02*
X136774000Y-42115580D01*
X135754000Y-41834420D02*
X135754000Y-42115580D01*
%TO.C,R15*%
X135927895Y-36022500D02*
X135453379Y-36022500D01*
X135927895Y-34977500D02*
X135453379Y-34977500D01*
%TO.C,R12*%
X139989742Y-37125500D02*
X140464258Y-37125500D01*
X139989742Y-36080500D02*
X140464258Y-36080500D01*
%TO.C,R13*%
X140464258Y-35410500D02*
X139989742Y-35410500D01*
X140464258Y-34365500D02*
X139989742Y-34365500D01*
%TO.C,R9*%
X138272500Y-41687742D02*
X138272500Y-42162258D01*
X137227500Y-41687742D02*
X137227500Y-42162258D01*
%TO.C,R11*%
X138526500Y-35887258D02*
X138526500Y-35412742D01*
X137481500Y-35887258D02*
X137481500Y-35412742D01*
%TO.C,U3*%
D12*
X136018001Y-40139000D02*
G75*
G02*
X135958001Y-40139000I-30000J0D01*
G01*
X135958001Y-40139000D02*
G75*
G02*
X136018001Y-40139000I30000J0D01*
G01*
D10*
X135588001Y-39389000D02*
G75*
G02*
X135388001Y-39389000I-100000J0D01*
G01*
X135388001Y-39389000D02*
G75*
G02*
X135588001Y-39389000I100000J0D01*
G01*
X138088001Y-40139000D02*
X138088001Y-39629000D01*
X138088001Y-38149000D02*
X138088001Y-37639000D01*
X138038001Y-40139000D02*
X138088001Y-40139000D01*
X138038001Y-37639000D02*
X138088001Y-37639000D01*
X135888001Y-40139000D02*
X135938001Y-40139000D01*
X135888001Y-40139000D02*
X135888001Y-39639000D01*
X135888001Y-38149000D02*
X135888001Y-37639000D01*
X135888001Y-37639000D02*
X135938001Y-37639000D01*
%TO.C,C5*%
D11*
X124240000Y-72859420D02*
X124240000Y-73140580D01*
X125260000Y-72859420D02*
X125260000Y-73140580D01*
%TO.C,U18*%
D13*
X123800898Y-55586899D02*
X125413101Y-57199102D01*
X125413101Y-57199102D02*
X128199102Y-54413101D01*
X126586899Y-52800898D02*
X123800898Y-55586899D01*
X128199102Y-54413101D02*
X126586899Y-52800898D01*
D12*
X127328148Y-54413101D02*
G75*
G02*
X127288148Y-54413101I-20000J0D01*
G01*
X127288148Y-54413101D02*
G75*
G02*
X127328148Y-54413101I20000J0D01*
G01*
%TO.C,C9*%
D11*
X143658000Y-62619836D02*
X143658000Y-62404164D01*
X144378000Y-62619836D02*
X144378000Y-62404164D01*
%TO.C,C25*%
X133355835Y-71752002D02*
X133140163Y-71752002D01*
X133355835Y-72472002D02*
X133140163Y-72472002D01*
%TO.C,U15*%
D13*
X123610000Y-75030000D02*
X123610000Y-78970000D01*
X123610000Y-78970000D02*
X125890000Y-78970000D01*
X125890000Y-75030000D02*
X123610000Y-75030000D01*
X125890000Y-78970000D02*
X125890000Y-75030000D01*
D12*
X124260000Y-78340000D02*
G75*
G02*
X124220000Y-78340000I-20000J0D01*
G01*
X124220000Y-78340000D02*
G75*
G02*
X124260000Y-78340000I20000J0D01*
G01*
%TO.C,C31*%
D11*
X143637580Y-65530000D02*
X143356420Y-65530000D01*
X143637580Y-66550000D02*
X143356420Y-66550000D01*
%TO.C,U14*%
D13*
X123574000Y-62038000D02*
X123574000Y-65978000D01*
X123574000Y-65978000D02*
X125854000Y-65978000D01*
X125854000Y-62038000D02*
X123574000Y-62038000D01*
X125854000Y-65978000D02*
X125854000Y-62038000D01*
D12*
X125244000Y-62668000D02*
G75*
G02*
X125204000Y-62668000I-20000J0D01*
G01*
X125204000Y-62668000D02*
G75*
G02*
X125244000Y-62668000I20000J0D01*
G01*
%TO.C,C39*%
D11*
X155221000Y-64000748D02*
X155221000Y-64523252D01*
X156691000Y-64000748D02*
X156691000Y-64523252D01*
%TO.C,U19*%
D13*
X126050898Y-57586899D02*
X127663101Y-59199102D01*
X127663101Y-59199102D02*
X130449102Y-56413101D01*
X128836899Y-54800898D02*
X126050898Y-57586899D01*
X130449102Y-56413101D02*
X128836899Y-54800898D01*
D12*
X126961852Y-57586899D02*
G75*
G02*
X126921852Y-57586899I-20000J0D01*
G01*
X126921852Y-57586899D02*
G75*
G02*
X126961852Y-57586899I20000J0D01*
G01*
%TO.C,C23*%
D11*
X144871779Y-69180896D02*
X145024282Y-69333399D01*
X145380896Y-68671779D02*
X145533399Y-68824282D01*
%TO.C,C1*%
X136396000Y-110362420D02*
X136396000Y-110643580D01*
X137416000Y-110362420D02*
X137416000Y-110643580D01*
%TO.C,C37*%
X150008000Y-81652164D02*
X150008000Y-81867836D01*
X150728000Y-81652164D02*
X150728000Y-81867836D01*
%TO.C,R2*%
X154925500Y-69612742D02*
X154925500Y-70087258D01*
X155970500Y-69612742D02*
X155970500Y-70087258D01*
%TO.C,C22*%
X140460000Y-74040420D02*
X140460000Y-74321580D01*
X141480000Y-74040420D02*
X141480000Y-74321580D01*
%TO.C,C40*%
X150008000Y-64916164D02*
X150008000Y-65131836D01*
X150728000Y-64916164D02*
X150728000Y-65131836D01*
%TO.C,C36*%
X136495163Y-55869999D02*
X136710835Y-55869999D01*
X136495163Y-56589999D02*
X136710835Y-56589999D01*
%TO.C,R47*%
X125715499Y-70150258D02*
X125715499Y-69675742D01*
X126760499Y-70150258D02*
X126760499Y-69675742D01*
%TO.C,C13*%
X151157000Y-80708748D02*
X151157000Y-81231252D01*
X152627000Y-80708748D02*
X152627000Y-81231252D01*
%TO.C,U2*%
D14*
X135433189Y-97007189D02*
X135723189Y-97007189D01*
X135433189Y-100307189D02*
X135433189Y-97007189D01*
X135433189Y-100307189D02*
X135723189Y-100307189D01*
X137803189Y-97007189D02*
X138143189Y-97007189D01*
X137803189Y-100307189D02*
X138143189Y-100307189D01*
X139223189Y-97007189D02*
X139433189Y-97007189D01*
X139433189Y-97007189D02*
X139433189Y-97867189D01*
X139433189Y-99447189D02*
X139433189Y-100307189D01*
X139433189Y-100307189D02*
X139223189Y-100307189D01*
D13*
X138933189Y-101057189D02*
G75*
G02*
X138733189Y-101057189I-100000J0D01*
G01*
X138733189Y-101057189D02*
G75*
G02*
X138933189Y-101057189I100000J0D01*
G01*
D12*
X139463189Y-100307189D02*
G75*
G02*
X139403189Y-100307189I-30000J0D01*
G01*
X139403189Y-100307189D02*
G75*
G02*
X139463189Y-100307189I30000J0D01*
G01*
%TO.C,U13*%
D13*
X127316000Y-62868000D02*
X127316000Y-65148000D01*
X127316000Y-65148000D02*
X131256000Y-65148000D01*
X131256000Y-62868000D02*
X127316000Y-62868000D01*
X131256000Y-65148000D02*
X131256000Y-62868000D01*
D12*
X127966000Y-63498000D02*
G75*
G02*
X127926000Y-63498000I-20000J0D01*
G01*
X127926000Y-63498000D02*
G75*
G02*
X127966000Y-63498000I20000J0D01*
G01*
%TO.C,R56*%
D11*
X150321742Y-69581500D02*
X150796258Y-69581500D01*
X150321742Y-70626500D02*
X150796258Y-70626500D01*
%TO.C,R34*%
X127239501Y-69675742D02*
X127239501Y-70150258D01*
X128284501Y-69675742D02*
X128284501Y-70150258D01*
%TO.C,U9*%
D13*
X134173999Y-100967999D02*
X134173999Y-103247999D01*
X134173999Y-103247999D02*
X138113999Y-103247999D01*
X138113999Y-100967999D02*
X134173999Y-100967999D01*
X138113999Y-103247999D02*
X138113999Y-100967999D01*
D12*
X137503999Y-102617999D02*
G75*
G02*
X137463999Y-102617999I-20000J0D01*
G01*
X137463999Y-102617999D02*
G75*
G02*
X137503999Y-102617999I20000J0D01*
G01*
%TO.C,C35*%
D11*
X137006420Y-57011000D02*
X137287580Y-57011000D01*
X137006420Y-58031000D02*
X137287580Y-58031000D01*
%TO.C,R49*%
X150130742Y-86345500D02*
X150605258Y-86345500D01*
X150130742Y-87390500D02*
X150605258Y-87390500D01*
%TO.C,C32*%
X130928164Y-69743999D02*
X131143836Y-69743999D01*
X130928164Y-70463999D02*
X131143836Y-70463999D01*
%TO.C,R29*%
X141016258Y-57897500D02*
X140541742Y-57897500D01*
X141016258Y-58942500D02*
X140541742Y-58942500D01*
%TO.C,U12*%
D13*
X137544000Y-73214000D02*
X137544000Y-77154000D01*
X137544000Y-77154000D02*
X139824000Y-77154000D01*
X139824000Y-73214000D02*
X137544000Y-73214000D01*
X139824000Y-77154000D02*
X139824000Y-73214000D01*
D12*
X138194000Y-76524000D02*
G75*
G02*
X138154000Y-76524000I-20000J0D01*
G01*
X138154000Y-76524000D02*
G75*
G02*
X138194000Y-76524000I20000J0D01*
G01*
%TO.C,R7*%
D11*
X140126690Y-97519258D02*
X140126690Y-97044742D01*
X141171690Y-97519258D02*
X141171690Y-97044742D01*
%TO.C,C2*%
X139779352Y-100985999D02*
X139995024Y-100985999D01*
X139779352Y-101705999D02*
X139995024Y-101705999D01*
%TO.C,C12*%
X153189000Y-80708748D02*
X153189000Y-81231252D01*
X154659000Y-80708748D02*
X154659000Y-81231252D01*
%TO.C,R17*%
X142764742Y-71359500D02*
X143239258Y-71359500D01*
X142764742Y-72404500D02*
X143239258Y-72404500D01*
%TO.C,C20*%
X134364000Y-57153580D02*
X134364000Y-56872420D01*
X135384000Y-57153580D02*
X135384000Y-56872420D01*
%TO.C,U11*%
D13*
X136460000Y-70488000D02*
X136460000Y-72768000D01*
X136460000Y-72768000D02*
X140400000Y-72768000D01*
X140400000Y-70488000D02*
X136460000Y-70488000D01*
X140400000Y-72768000D02*
X140400000Y-70488000D01*
D12*
X139790000Y-72138000D02*
G75*
G02*
X139750000Y-72138000I-20000J0D01*
G01*
X139750000Y-72138000D02*
G75*
G02*
X139790000Y-72138000I20000J0D01*
G01*
%TO.C,C28*%
D11*
X127153581Y-71626000D02*
X126872421Y-71626000D01*
X127153581Y-72646000D02*
X126872421Y-72646000D01*
%TO.C,U10*%
D13*
X132718000Y-96328000D02*
X132718000Y-100268000D01*
X132718000Y-100268000D02*
X134998000Y-100268000D01*
X134998000Y-96328000D02*
X132718000Y-96328000D01*
X134998000Y-100268000D02*
X134998000Y-96328000D01*
D12*
X133368000Y-99638000D02*
G75*
G02*
X133328000Y-99638000I-20000J0D01*
G01*
X133328000Y-99638000D02*
G75*
G02*
X133368000Y-99638000I20000J0D01*
G01*
%TO.C,C17*%
D11*
X151157000Y-64000748D02*
X151157000Y-64523252D01*
X152627000Y-64000748D02*
X152627000Y-64523252D01*
%TO.C,C24*%
X142539836Y-70252000D02*
X142324164Y-70252000D01*
X142539836Y-70972000D02*
X142324164Y-70972000D01*
%TO.C,R6*%
X141650688Y-97519257D02*
X141650688Y-97044741D01*
X142695688Y-97519257D02*
X142695688Y-97044741D01*
%TO.C,C29*%
X136292000Y-74568164D02*
X136292000Y-74783836D01*
X137012000Y-74568164D02*
X137012000Y-74783836D01*
%TO.C,C33*%
X155221000Y-80708748D02*
X155221000Y-81231252D01*
X156691000Y-80708748D02*
X156691000Y-81231252D01*
%TO.C,R1*%
X154671500Y-86947742D02*
X154671500Y-87422258D01*
X155716500Y-86947742D02*
X155716500Y-87422258D01*
%TO.C,C3*%
X137085937Y-95023000D02*
X137608441Y-95023000D01*
X137085937Y-96493000D02*
X137608441Y-96493000D01*
%TO.C,R41*%
X124191500Y-69675742D02*
X124191500Y-70150258D01*
X125236500Y-69675742D02*
X125236500Y-70150258D01*
%TO.C,C38*%
X153189000Y-64000748D02*
X153189000Y-64523252D01*
X154659000Y-64000748D02*
X154659000Y-64523252D01*
%TO.C,R14*%
X133796500Y-35928742D02*
X133796500Y-36403258D01*
X132751500Y-35928742D02*
X132751500Y-36403258D01*
%TD*%
M02*
